STARTFONT 2.1
FONT -sun-timmons-medium-i-normal--8-80-75-75-p-42-adobe-fontspecific
SIZE 8 75 75
FONTBOUNDINGBOX 11 10 -2 -2

STARTPROPERTIES 28
FOUNDRY "sun"
FAMILY_NAME "timmons"
WEIGHT_NAME "medium"
SLANT "i"
SETWIDTH_NAME "normal"
ADD_STYLE_NAME ""
PIXEL_SIZE 8
POINT_SIZE 80
RESOLUTION_X 75
RESOLUTION_Y 75
SPACING "p"
AVERAGE_WIDTH 42
CHARSET_REGISTRY "adobe"
CHARSET_ENCODING "fontspecific"
COPYRIGHT "© 1999 Sun Microsystems, Inc."
RAW_PIXELSIZE 1000
RAW_POINTSIZE 964
RAW_ASCENT 924
RAW_DESCENT 196
RAW_AVERAGE_WIDTH 5015
FACE_NAME "TimmonsItalicnsB5"
_XMBDFED_INFO "Edited with xmbdfed 2.4."
WEIGHT 10
X_HEIGHT 0
QUAD_WIDTH 4
DEFAULT_CHAR 4
FONT_DESCENT 2
FONT_ASCENT 8
ENDPROPERTIES

CHARS 214

STARTCHAR char32
ENCODING 32
SWIDTH 21 0
DWIDTH 2 0
BBX 0 0 0 0
BITMAP
ENDCHAR

STARTCHAR char33
ENCODING 33
SWIDTH 21 0
DWIDTH 2 0
BBX 2 6 1 0
BITMAP
40
40
40
40
40
80
ENDCHAR

STARTCHAR char34
ENCODING 34
SWIDTH 32 0
DWIDTH 3 0
BBX 3 2 1 4
BITMAP
A0
A0
ENDCHAR

STARTCHAR char35
ENCODING 35
SWIDTH 43 0
DWIDTH 4 0
BBX 4 6 0 0
BITMAP
50
F0
60
60
E0
60
ENDCHAR

STARTCHAR char36
ENCODING 36
SWIDTH 43 0
DWIDTH 4 0
BBX 4 8 0 -1
BITMAP
10
70
50
60
30
B0
B0
40
ENDCHAR

STARTCHAR char37
ENCODING 37
SWIDTH 64 0
DWIDTH 6 0
BBX 6 6 0 0
BITMAP
68
A8
BC
F4
34
3C
ENDCHAR

STARTCHAR char38
ENCODING 38
SWIDTH 53 0
DWIDTH 5 0
BBX 6 6 0 0
BITMAP
10
30
20
FC
B0
F8
ENDCHAR

STARTCHAR char39
ENCODING 39
SWIDTH 21 0
DWIDTH 2 0
BBX 2 2 1 4
BITMAP
80
80
ENDCHAR

STARTCHAR char40
ENCODING 40
SWIDTH 32 0
DWIDTH 3 0
BBX 3 7 1 -1
BITMAP
40
40
80
80
80
80
80
ENDCHAR

STARTCHAR char41
ENCODING 41
SWIDTH 32 0
DWIDTH 3 0
BBX 4 7 -1 -1
BITMAP
20
10
10
10
20
40
40
ENDCHAR

STARTCHAR char42
ENCODING 42
SWIDTH 32 0
DWIDTH 3 0
BBX 3 3 1 3
BITMAP
40
E0
E0
ENDCHAR

STARTCHAR char43
ENCODING 43
SWIDTH 53 0
DWIDTH 5 0
BBX 5 5 0 0
BITMAP
20
20
F8
20
20
ENDCHAR

STARTCHAR char44
ENCODING 44
SWIDTH 21 0
DWIDTH 2 0
BBX 1 2 0 -1
BITMAP
80
80
ENDCHAR

STARTCHAR char45
ENCODING 45
SWIDTH 21 0
DWIDTH 2 0
BBX 3 1 0 2
BITMAP
C0
ENDCHAR

STARTCHAR char46
ENCODING 46
SWIDTH 21 0
DWIDTH 2 0
BBX 1 1 0 0
BITMAP
80
ENDCHAR

STARTCHAR char47
ENCODING 47
SWIDTH 32 0
DWIDTH 3 0
BBX 3 6 0 0
BITMAP
20
20
20
40
40
80
ENDCHAR

STARTCHAR char48
ENCODING 48
SWIDTH 43 0
DWIDTH 4 0
BBX 4 6 0 0
BITMAP
20
50
90
90
90
60
ENDCHAR

STARTCHAR char49
ENCODING 49
SWIDTH 43 0
DWIDTH 4 0
BBX 3 6 0 0
BITMAP
20
20
20
20
40
C0
ENDCHAR

STARTCHAR char50
ENCODING 50
SWIDTH 43 0
DWIDTH 4 0
BBX 4 6 0 0
BITMAP
70
10
10
20
40
E0
ENDCHAR

STARTCHAR char51
ENCODING 51
SWIDTH 43 0
DWIDTH 4 0
BBX 4 6 0 0
BITMAP
20
30
40
20
20
C0
ENDCHAR

STARTCHAR char52
ENCODING 52
SWIDTH 43 0
DWIDTH 4 0
BBX 4 6 0 0
BITMAP
10
30
50
A0
F0
20
ENDCHAR

STARTCHAR char53
ENCODING 53
SWIDTH 43 0
DWIDTH 4 0
BBX 4 6 0 0
BITMAP
30
40
20
20
20
C0
ENDCHAR

STARTCHAR char54
ENCODING 54
SWIDTH 43 0
DWIDTH 4 0
BBX 4 6 0 0
BITMAP
20
40
60
90
90
E0
ENDCHAR

STARTCHAR char55
ENCODING 55
SWIDTH 43 0
DWIDTH 4 0
BBX 3 6 1 0
BITMAP
E0
20
20
40
40
80
ENDCHAR

STARTCHAR char56
ENCODING 56
SWIDTH 43 0
DWIDTH 4 0
BBX 4 6 0 0
BITMAP
70
50
50
70
90
F0
ENDCHAR

STARTCHAR char57
ENCODING 57
SWIDTH 43 0
DWIDTH 4 0
BBX 4 6 0 0
BITMAP
60
90
90
F0
20
40
ENDCHAR

STARTCHAR char58
ENCODING 58
SWIDTH 21 0
DWIDTH 2 0
BBX 2 4 1 0
BITMAP
40
00
00
80
ENDCHAR

STARTCHAR char59
ENCODING 59
SWIDTH 21 0
DWIDTH 2 0
BBX 3 5 0 -1
BITMAP
20
00
00
40
40
ENDCHAR

STARTCHAR char60
ENCODING 60
SWIDTH 43 0
DWIDTH 4 0
BBX 4 4 0 0
BITMAP
30
C0
60
10
ENDCHAR

STARTCHAR char61
ENCODING 61
SWIDTH 53 0
DWIDTH 5 0
BBX 6 3 0 1
BITMAP
FC
00
FC
ENDCHAR

STARTCHAR char62
ENCODING 62
SWIDTH 43 0
DWIDTH 4 0
BBX 4 4 0 0
BITMAP
E0
10
60
80
ENDCHAR

STARTCHAR char63
ENCODING 63
SWIDTH 32 0
DWIDTH 3 0
BBX 3 6 1 0
BITMAP
E0
20
40
C0
80
80
ENDCHAR

STARTCHAR char64
ENCODING 64
SWIDTH 96 0
DWIDTH 9 0
BBX 6 6 1 0
BITMAP
38
FC
CC
CC
FC
38
ENDCHAR

STARTCHAR char65
ENCODING 65
SWIDTH 53 0
DWIDTH 5 0
BBX 6 6 -1 0
BITMAP
08
08
18
18
38
58
ENDCHAR

STARTCHAR char66
ENCODING 66
SWIDTH 53 0
DWIDTH 5 0
BBX 5 6 0 0
BITMAP
78
48
70
50
50
F0
ENDCHAR

STARTCHAR char67
ENCODING 67
SWIDTH 53 0
DWIDTH 5 0
BBX 6 6 0 0
BITMAP
3C
44
C0
80
80
70
ENDCHAR

STARTCHAR char68
ENCODING 68
SWIDTH 64 0
DWIDTH 6 0
BBX 6 6 -1 0
BITMAP
38
24
24
24
2C
70
ENDCHAR

STARTCHAR char69
ENCODING 69
SWIDTH 53 0
DWIDTH 5 0
BBX 6 6 0 0
BITMAP
70
4C
70
50
50
F0
ENDCHAR

STARTCHAR char70
ENCODING 70
SWIDTH 43 0
DWIDTH 4 0
BBX 5 6 0 0
BITMAP
78
20
70
50
40
C0
ENDCHAR

STARTCHAR char71
ENCODING 71
SWIDTH 64 0
DWIDTH 6 0
BBX 6 6 0 0
BITMAP
3C
44
80
88
88
78
ENDCHAR

STARTCHAR char72
ENCODING 72
SWIDTH 64 0
DWIDTH 6 0
BBX 8 6 -1 0
BITMAP
33
24
3C
24
44
C8
ENDCHAR

STARTCHAR char73
ENCODING 73
SWIDTH 32 0
DWIDTH 3 0
BBX 4 6 0 0
BITMAP
30
20
40
40
40
C0
ENDCHAR

STARTCHAR char74
ENCODING 74
SWIDTH 32 0
DWIDTH 3 0
BBX 4 6 0 0
BITMAP
30
20
20
20
40
C0
ENDCHAR

STARTCHAR char75
ENCODING 75
SWIDTH 53 0
DWIDTH 5 0
BBX 7 6 -1 0
BITMAP
36
28
30
30
28
48
ENDCHAR

STARTCHAR char76
ENCODING 76
SWIDTH 53 0
DWIDTH 5 0
BBX 5 6 0 0
BITMAP
60
40
40
40
48
F0
ENDCHAR

STARTCHAR char77
ENCODING 77
SWIDTH 75 0
DWIDTH 7 0
BBX 9 6 -1 0
BITMAP
3180
3600
3600
3A00
5A00
D400
ENDCHAR

STARTCHAR char78
ENCODING 78
SWIDTH 64 0
DWIDTH 6 0
BBX 8 6 -1 0
BITMAP
23
32
32
2C
48
C8
ENDCHAR

STARTCHAR char79
ENCODING 79
SWIDTH 64 0
DWIDTH 6 0
BBX 6 6 0 0
BITMAP
38
44
C4
8C
88
70
ENDCHAR

STARTCHAR char80
ENCODING 80
SWIDTH 43 0
DWIDTH 4 0
BBX 5 6 0 0
BITMAP
38
28
48
70
40
C0
ENDCHAR

STARTCHAR char81
ENCODING 81
SWIDTH 64 0
DWIDTH 6 0
BBX 6 7 0 -1
BITMAP
38
44
C4
8C
88
70
7C
ENDCHAR

STARTCHAR char82
ENCODING 82
SWIDTH 53 0
DWIDTH 5 0
BBX 5 6 0 0
BITMAP
70
48
50
60
50
D0
ENDCHAR

STARTCHAR char83
ENCODING 83
SWIDTH 43 0
DWIDTH 4 0
BBX 5 6 0 0
BITMAP
70
48
40
30
90
F0
ENDCHAR

STARTCHAR char84
ENCODING 84
SWIDTH 43 0
DWIDTH 4 0
BBX 6 6 0 0
BITMAP
78
68
20
20
20
40
ENDCHAR

STARTCHAR char85
ENCODING 85
SWIDTH 64 0
DWIDTH 6 0
BBX 6 6 1 0
BITMAP
EC
88
88
90
90
E0
ENDCHAR

STARTCHAR char86
ENCODING 86
SWIDTH 53 0
DWIDTH 5 0
BBX 6 6 1 0
BITMAP
CC
90
A0
E0
80
80
ENDCHAR

STARTCHAR char87
ENCODING 87
SWIDTH 75 0
DWIDTH 7 0
BBX 8 5 1 1
BITMAP
FA
94
B8
D8
90
ENDCHAR

STARTCHAR char88
ENCODING 88
SWIDTH 53 0
DWIDTH 5 0
BBX 7 6 -1 0
BITMAP
3C
1C
10
10
70
D8
ENDCHAR

STARTCHAR char89
ENCODING 89
SWIDTH 53 0
DWIDTH 5 0
BBX 5 6 1 0
BITMAP
E8
50
60
40
40
C0
ENDCHAR

STARTCHAR char90
ENCODING 90
SWIDTH 53 0
DWIDTH 5 0
BBX 6 6 0 0
BITMAP
78
48
10
60
44
78
ENDCHAR

STARTCHAR char91
ENCODING 91
SWIDTH 32 0
DWIDTH 3 0
BBX 4 8 0 -2
BITMAP
30
20
40
40
40
80
80
80
ENDCHAR

STARTCHAR char92
ENCODING 92
SWIDTH 21 0
DWIDTH 2 0
BBX 2 6 0 0
BITMAP
80
80
40
40
40
40
ENDCHAR

STARTCHAR char93
ENCODING 93
SWIDTH 32 0
DWIDTH 3 0
BBX 4 8 -1 -2
BITMAP
30
10
10
20
20
20
20
40
ENDCHAR

STARTCHAR char94
ENCODING 94
SWIDTH 0 0
DWIDTH 0 0
BBX 3 1 0 6
BITMAP
E0
ENDCHAR

STARTCHAR char95
ENCODING 95
SWIDTH 53 0
DWIDTH 5 0
BBX 5 1 0 -1
BITMAP
F8
ENDCHAR

STARTCHAR char96
ENCODING 96
SWIDTH 0 0
DWIDTH 0 0
BBX 2 1 0 5
BITMAP
40
ENDCHAR

STARTCHAR char97
ENCODING 97
SWIDTH 43 0
DWIDTH 4 0
BBX 4 4 0 0
BITMAP
70
50
90
F0
ENDCHAR

STARTCHAR char98
ENCODING 98
SWIDTH 43 0
DWIDTH 4 0
BBX 4 6 0 0
BITMAP
40
40
70
90
90
E0
ENDCHAR

STARTCHAR char99
ENCODING 99
SWIDTH 32 0
DWIDTH 3 0
BBX 4 4 0 0
BITMAP
70
80
80
E0
ENDCHAR

STARTCHAR char100
ENCODING 100
SWIDTH 43 0
DWIDTH 4 0
BBX 4 6 0 0
BITMAP
10
10
70
90
A0
F0
ENDCHAR

STARTCHAR char101
ENCODING 101
SWIDTH 32 0
DWIDTH 3 0
BBX 4 4 0 0
BITMAP
70
E0
80
E0
ENDCHAR

STARTCHAR char102
ENCODING 102
SWIDTH 21 0
DWIDTH 2 0
BBX 5 7 -1 -1
BITMAP
18
10
30
20
20
20
40
ENDCHAR

STARTCHAR char103
ENCODING 103
SWIDTH 32 0
DWIDTH 3 0
BBX 5 5 -1 -1
BITMAP
30
50
20
60
F0
ENDCHAR

STARTCHAR char104
ENCODING 104
SWIDTH 43 0
DWIDTH 4 0
BBX 4 6 0 0
BITMAP
40
40
70
50
B0
B0
ENDCHAR

STARTCHAR char105
ENCODING 105
SWIDTH 21 0
DWIDTH 2 0
BBX 3 6 0 0
BITMAP
20
00
40
40
40
60
ENDCHAR

STARTCHAR char106
ENCODING 106
SWIDTH 21 0
DWIDTH 2 0
BBX 3 7 -1 -1
BITMAP
20
00
20
20
20
40
C0
ENDCHAR

STARTCHAR char107
ENCODING 107
SWIDTH 43 0
DWIDTH 4 0
BBX 5 6 0 0
BITMAP
40
40
70
60
A0
90
ENDCHAR

STARTCHAR char108
ENCODING 108
SWIDTH 21 0
DWIDTH 2 0
BBX 3 6 0 0
BITMAP
60
40
40
40
80
C0
ENDCHAR

STARTCHAR char109
ENCODING 109
SWIDTH 64 0
DWIDTH 6 0
BBX 6 4 0 0
BITMAP
5C
7C
B8
9C
ENDCHAR

STARTCHAR char110
ENCODING 110
SWIDTH 43 0
DWIDTH 4 0
BBX 4 4 0 0
BITMAP
50
70
90
B0
ENDCHAR

STARTCHAR char111
ENCODING 111
SWIDTH 43 0
DWIDTH 4 0
BBX 4 4 0 0
BITMAP
70
90
90
E0
ENDCHAR

STARTCHAR char112
ENCODING 112
SWIDTH 43 0
DWIDTH 4 0
BBX 5 5 -1 -1
BITMAP
78
48
48
70
C0
ENDCHAR

STARTCHAR char113
ENCODING 113
SWIDTH 43 0
DWIDTH 4 0
BBX 4 5 0 -1
BITMAP
70
90
A0
E0
70
ENDCHAR

STARTCHAR char114
ENCODING 114
SWIDTH 32 0
DWIDTH 3 0
BBX 3 4 0 0
BITMAP
60
40
40
40
ENDCHAR

STARTCHAR char115
ENCODING 115
SWIDTH 32 0
DWIDTH 3 0
BBX 3 4 0 0
BITMAP
60
40
20
E0
ENDCHAR

STARTCHAR char116
ENCODING 116
SWIDTH 21 0
DWIDTH 2 0
BBX 3 5 0 0
BITMAP
20
60
40
80
C0
ENDCHAR

STARTCHAR char117
ENCODING 117
SWIDTH 43 0
DWIDTH 4 0
BBX 4 4 0 0
BITMAP
50
50
A0
F0
ENDCHAR

STARTCHAR char118
ENCODING 118
SWIDTH 32 0
DWIDTH 3 0
BBX 3 4 0 0
BITMAP
A0
60
60
40
ENDCHAR

STARTCHAR char119
ENCODING 119
SWIDTH 53 0
DWIDTH 5 0
BBX 5 4 0 0
BITMAP
E8
78
78
50
ENDCHAR

STARTCHAR char120
ENCODING 120
SWIDTH 43 0
DWIDTH 4 0
BBX 4 4 0 0
BITMAP
F0
40
60
B0
ENDCHAR

STARTCHAR char121
ENCODING 121
SWIDTH 32 0
DWIDTH 3 0
BBX 4 5 -1 -1
BITMAP
50
50
50
20
C0
ENDCHAR

STARTCHAR char122
ENCODING 122
SWIDTH 32 0
DWIDTH 3 0
BBX 3 4 0 0
BITMAP
60
40
40
E0
ENDCHAR

STARTCHAR char123
ENCODING 123
SWIDTH 32 0
DWIDTH 3 0
BBX 2 8 0 -2
BITMAP
40
40
40
80
40
40
40
40
ENDCHAR

STARTCHAR char124
ENCODING 124
SWIDTH 21 0
DWIDTH 2 0
BBX 1 6 1 0
BITMAP
80
80
80
80
80
80
ENDCHAR

STARTCHAR char125
ENCODING 125
SWIDTH 32 0
DWIDTH 3 0
BBX 2 8 0 -2
BITMAP
C0
40
40
40
40
40
40
C0
ENDCHAR

STARTCHAR char126
ENCODING 126
SWIDTH 0 0
DWIDTH 0 0
BBX 3 1 0 7
BITMAP
60
ENDCHAR

STARTCHAR char128
ENCODING 128
SWIDTH 43 0
DWIDTH 4 0
BBX 5 6 0 0
BITMAP
10
68
E0
E0
80
E0
ENDCHAR

STARTCHAR char130
ENCODING 130
SWIDTH 21 0
DWIDTH 2 0
BBX 1 2 0 -1
BITMAP
80
80
ENDCHAR

STARTCHAR char131
ENCODING 131
SWIDTH 0 0
DWIDTH 0 0
BBX 3 1 0 6
BITMAP
E0
ENDCHAR

STARTCHAR char132
ENCODING 132
SWIDTH 32 0
DWIDTH 3 0
BBX 2 2 0 -1
BITMAP
C0
C0
ENDCHAR

STARTCHAR char133
ENCODING 133
SWIDTH 96 0
DWIDTH 9 0
BBX 7 1 1 0
BITMAP
92
ENDCHAR

STARTCHAR char134
ENCODING 134
SWIDTH 43 0
DWIDTH 4 0
BBX 4 7 1 -1
BITMAP
40
40
F0
40
40
80
80
ENDCHAR

STARTCHAR char135
ENCODING 135
SWIDTH 86 0
DWIDTH 8 0
BBX 0 0 0 0
BITMAP
ENDCHAR

STARTCHAR char136
ENCODING 136
SWIDTH 0 0
DWIDTH 0 0
BBX 2 1 0 5
BITMAP
40
ENDCHAR

STARTCHAR char137
ENCODING 137
SWIDTH 86 0
DWIDTH 8 0
BBX 0 0 0 0
BITMAP
ENDCHAR

STARTCHAR char138
ENCODING 138
SWIDTH 86 0
DWIDTH 8 0
BBX 0 0 0 0
BITMAP
ENDCHAR

STARTCHAR char139
ENCODING 139
SWIDTH 32 0
DWIDTH 3 0
BBX 1 3 1 1
BITMAP
80
80
80
ENDCHAR

STARTCHAR char140
ENCODING 140
SWIDTH 86 0
DWIDTH 8 0
BBX 8 6 0 0
BITMAP
3F
49
8E
8A
8A
7E
ENDCHAR

STARTCHAR char141
ENCODING 141
SWIDTH 86 0
DWIDTH 8 0
BBX 0 0 0 0
BITMAP
ENDCHAR

STARTCHAR char143
ENCODING 143
SWIDTH 86 0
DWIDTH 8 0
BBX 0 0 0 0
BITMAP
ENDCHAR

STARTCHAR char145
ENCODING 145
SWIDTH 21 0
DWIDTH 2 0
BBX 2 2 1 4
BITMAP
80
80
ENDCHAR

STARTCHAR char146
ENCODING 146
SWIDTH 21 0
DWIDTH 2 0
BBX 2 2 1 4
BITMAP
40
80
ENDCHAR

STARTCHAR char147
ENCODING 147
SWIDTH 32 0
DWIDTH 3 0
BBX 3 2 1 4
BITMAP
A0
C0
ENDCHAR

STARTCHAR char148
ENCODING 148
SWIDTH 32 0
DWIDTH 3 0
BBX 3 2 1 4
BITMAP
60
60
ENDCHAR

STARTCHAR char149
ENCODING 149
SWIDTH 32 0
DWIDTH 3 0
BBX 2 2 0 2
BITMAP
C0
C0
ENDCHAR

STARTCHAR char150
ENCODING 150
SWIDTH 43 0
DWIDTH 4 0
BBX 4 1 0 2
BITMAP
E0
ENDCHAR

STARTCHAR char151
ENCODING 151
SWIDTH 53 0
DWIDTH 5 0
BBX 6 1 0 2
BITMAP
FC
ENDCHAR

STARTCHAR char152
ENCODING 152
SWIDTH 0 0
DWIDTH 0 0
BBX 3 1 0 5
BITMAP
E0
ENDCHAR

STARTCHAR char153
ENCODING 153
SWIDTH 75 0
DWIDTH 7 0
BBX 6 4 0 2
BITMAP
F4
94
94
FC
ENDCHAR

STARTCHAR char154
ENCODING 154
SWIDTH 86 0
DWIDTH 8 0
BBX 0 0 0 0
BITMAP
ENDCHAR

STARTCHAR char155
ENCODING 155
SWIDTH 32 0
DWIDTH 3 0
BBX 1 3 1 1
BITMAP
80
80
80
ENDCHAR

STARTCHAR char156
ENCODING 156
SWIDTH 64 0
DWIDTH 6 0
BBX 6 4 0 0
BITMAP
6C
9C
90
FC
ENDCHAR

STARTCHAR char157
ENCODING 157
SWIDTH 86 0
DWIDTH 8 0
BBX 0 0 0 0
BITMAP
ENDCHAR

STARTCHAR char159
ENCODING 159
SWIDTH 53 0
DWIDTH 5 0
BBX 5 7 1 0
BITMAP
50
C8
50
60
40
40
C0
ENDCHAR

STARTCHAR char160
ENCODING 160
SWIDTH 21 0
DWIDTH 2 0
BBX 0 0 0 0
BITMAP
ENDCHAR

STARTCHAR char161
ENCODING 161
SWIDTH 21 0
DWIDTH 2 0
BBX 2 6 0 0
BITMAP
40
40
40
40
40
80
ENDCHAR

STARTCHAR char162
ENCODING 162
SWIDTH 32 0
DWIDTH 3 0
BBX 4 6 0 -1
BITMAP
20
70
A0
A0
E0
40
ENDCHAR

STARTCHAR char163
ENCODING 163
SWIDTH 43 0
DWIDTH 4 0
BBX 6 6 -1 0
BITMAP
1C
10
30
20
E0
F8
ENDCHAR

STARTCHAR char164
ENCODING 164
SWIDTH 0 0
DWIDTH 0 0
BBX 2 1 1 6
BITMAP
80
ENDCHAR

STARTCHAR char165
ENCODING 165
SWIDTH 0 0
DWIDTH 0 0
BBX 3 1 0 6
BITMAP
40
ENDCHAR

STARTCHAR char166
ENCODING 166
SWIDTH 86 0
DWIDTH 8 0
BBX 0 0 0 0
BITMAP
ENDCHAR

STARTCHAR char167
ENCODING 167
SWIDTH 32 0
DWIDTH 3 0
BBX 4 9 0 -2
BITMAP
30
50
40
E0
A0
60
40
C0
80
ENDCHAR

STARTCHAR char168
ENCODING 168
SWIDTH 0 0
DWIDTH 0 0
BBX 2 1 0 5
BITMAP
C0
ENDCHAR

STARTCHAR char169
ENCODING 169
SWIDTH 64 0
DWIDTH 6 0
BBX 6 6 0 0
BITMAP
30
F8
CC
C4
EC
70
ENDCHAR

STARTCHAR char170
ENCODING 170
SWIDTH 0 0
DWIDTH 0 0
BBX 3 1 0 6
BITMAP
A0
ENDCHAR

STARTCHAR char171
ENCODING 171
SWIDTH 43 0
DWIDTH 4 0
BBX 4 4 0 0
BITMAP
50
60
60
60
ENDCHAR

STARTCHAR char172
ENCODING 172
SWIDTH 53 0
DWIDTH 5 0
BBX 5 3 0 0
BITMAP
F8
08
08
ENDCHAR

STARTCHAR char173
ENCODING 173
SWIDTH 86 0
DWIDTH 8 0
BBX 0 0 0 0
BITMAP
ENDCHAR

STARTCHAR char174
ENCODING 174
SWIDTH 64 0
DWIDTH 6 0
BBX 6 6 0 0
BITMAP
30
F8
B4
A4
FC
70
ENDCHAR

STARTCHAR char175
ENCODING 175
SWIDTH 86 0
DWIDTH 8 0
BBX 0 0 0 0
BITMAP
ENDCHAR

STARTCHAR char176
ENCODING 176
SWIDTH 21 0
DWIDTH 2 0
BBX 3 3 1 3
BITMAP
40
A0
C0
ENDCHAR

STARTCHAR char177
ENCODING 177
SWIDTH 43 0
DWIDTH 4 0
BBX 4 5 0 0
BITMAP
40
F0
40
40
F0
ENDCHAR

STARTCHAR char178
ENCODING 178
SWIDTH 86 0
DWIDTH 8 0
BBX 0 0 0 0
BITMAP
ENDCHAR

STARTCHAR char179
ENCODING 179
SWIDTH 86 0
DWIDTH 8 0
BBX 0 0 0 0
BITMAP
ENDCHAR

STARTCHAR char180
ENCODING 180
SWIDTH 0 0
DWIDTH 0 0
BBX 1 1 1 5
BITMAP
80
ENDCHAR

STARTCHAR char181
ENCODING 181
SWIDTH 86 0
DWIDTH 8 0
BBX 0 0 0 0
BITMAP
ENDCHAR

STARTCHAR char182
ENCODING 182
SWIDTH 64 0
DWIDTH 6 0
BBX 3 7 1 -1
BITMAP
E0
E0
E0
60
60
60
60
ENDCHAR

STARTCHAR char183
ENCODING 183
SWIDTH 10 0
DWIDTH 1 0
BBX 1 1 1 2
BITMAP
80
ENDCHAR

STARTCHAR char184
ENCODING 184
SWIDTH 0 0
DWIDTH 0 0
BBX 1 2 -1 -2
BITMAP
80
80
ENDCHAR

STARTCHAR char186
ENCODING 186
SWIDTH 0 0
DWIDTH 0 0
BBX 3 1 0 7
BITMAP
60
ENDCHAR

STARTCHAR char187
ENCODING 187
SWIDTH 43 0
DWIDTH 4 0
BBX 4 4 0 0
BITMAP
50
50
A0
A0
ENDCHAR

STARTCHAR char188
ENCODING 188
SWIDTH 86 0
DWIDTH 8 0
BBX 0 0 0 0
BITMAP
ENDCHAR

STARTCHAR char189
ENCODING 189
SWIDTH 86 0
DWIDTH 8 0
BBX 0 0 0 0
BITMAP
ENDCHAR

STARTCHAR char191
ENCODING 191
SWIDTH 32 0
DWIDTH 3 0
BBX 3 6 0 0
BITMAP
20
20
20
40
80
E0
ENDCHAR

STARTCHAR char192
ENCODING 192
SWIDTH 53 0
DWIDTH 5 0
BBX 6 7 -1 0
BITMAP
04
08
08
18
18
38
58
ENDCHAR

STARTCHAR char193
ENCODING 193
SWIDTH 53 0
DWIDTH 5 0
BBX 6 7 -1 0
BITMAP
08
08
08
18
18
38
58
ENDCHAR

STARTCHAR char194
ENCODING 194
SWIDTH 53 0
DWIDTH 5 0
BBX 6 7 -1 0
BITMAP
1C
08
08
18
18
38
58
ENDCHAR

STARTCHAR char195
ENCODING 195
SWIDTH 53 0
DWIDTH 5 0
BBX 6 8 -1 0
BITMAP
1C
00
08
08
18
18
38
58
ENDCHAR

STARTCHAR char196
ENCODING 196
SWIDTH 53 0
DWIDTH 5 0
BBX 7 7 -1 0
BITMAP
0A
08
08
18
18
38
58
ENDCHAR

STARTCHAR char197
ENCODING 197
SWIDTH 53 0
DWIDTH 5 0
BBX 7 8 -1 0
BITMAP
06
06
08
08
18
18
38
58
ENDCHAR

STARTCHAR char198
ENCODING 198
SWIDTH 75 0
DWIDTH 7 0
BBX 9 6 -1 0
BITMAP
0F00
1480
1D00
3A00
4900
DE00
ENDCHAR

STARTCHAR char199
ENCODING 199
SWIDTH 53 0
DWIDTH 5 0
BBX 6 8 0 -2
BITMAP
3C
64
C0
80
80
70
20
40
ENDCHAR

STARTCHAR char200
ENCODING 200
SWIDTH 53 0
DWIDTH 5 0
BBX 6 7 0 0
BITMAP
08
70
4C
70
50
50
F0
ENDCHAR

STARTCHAR char201
ENCODING 201
SWIDTH 53 0
DWIDTH 5 0
BBX 6 7 0 0
BITMAP
10
70
4C
70
50
50
F0
ENDCHAR

STARTCHAR char202
ENCODING 202
SWIDTH 53 0
DWIDTH 5 0
BBX 6 7 0 0
BITMAP
38
70
4C
70
50
50
F0
ENDCHAR

STARTCHAR char203
ENCODING 203
SWIDTH 53 0
DWIDTH 5 0
BBX 6 7 0 0
BITMAP
28
70
4C
70
50
48
F0
ENDCHAR

STARTCHAR char204
ENCODING 204
SWIDTH 32 0
DWIDTH 3 0
BBX 4 7 0 0
BITMAP
10
30
20
40
40
40
C0
ENDCHAR

STARTCHAR char205
ENCODING 205
SWIDTH 32 0
DWIDTH 3 0
BBX 4 7 0 0
BITMAP
20
30
20
40
40
40
C0
ENDCHAR

STARTCHAR char206
ENCODING 206
SWIDTH 32 0
DWIDTH 3 0
BBX 4 7 0 0
BITMAP
70
30
20
40
40
40
C0
ENDCHAR

STARTCHAR char207
ENCODING 207
SWIDTH 32 0
DWIDTH 3 0
BBX 4 7 0 0
BITMAP
50
30
20
40
40
40
80
ENDCHAR

STARTCHAR char208
ENCODING 208
SWIDTH 86 0
DWIDTH 8 0
BBX 0 0 0 0
BITMAP
ENDCHAR

STARTCHAR char209
ENCODING 209
SWIDTH 64 0
DWIDTH 6 0
BBX 8 8 -1 0
BITMAP
0C
00
23
32
32
2C
48
C8
ENDCHAR

STARTCHAR char210
ENCODING 210
SWIDTH 64 0
DWIDTH 6 0
BBX 6 7 0 0
BITMAP
08
38
44
C4
8C
88
70
ENDCHAR

STARTCHAR char211
ENCODING 211
SWIDTH 64 0
DWIDTH 6 0
BBX 6 7 0 0
BITMAP
10
38
44
C4
8C
88
70
ENDCHAR

STARTCHAR char212
ENCODING 212
SWIDTH 64 0
DWIDTH 6 0
BBX 6 7 0 0
BITMAP
38
38
44
C4
8C
88
70
ENDCHAR

STARTCHAR char213
ENCODING 213
SWIDTH 64 0
DWIDTH 6 0
BBX 6 8 0 0
BITMAP
1C
00
38
44
C4
8C
88
70
ENDCHAR

STARTCHAR char214
ENCODING 214
SWIDTH 64 0
DWIDTH 6 0
BBX 6 7 0 0
BITMAP
14
38
44
C4
8C
88
70
ENDCHAR

STARTCHAR char215
ENCODING 215
SWIDTH 86 0
DWIDTH 8 0
BBX 0 0 0 0
BITMAP
ENDCHAR

STARTCHAR char216
ENCODING 216
SWIDTH 64 0
DWIDTH 6 0
BBX 6 7 0 -1
BITMAP
38
54
54
A8
A8
F0
80
ENDCHAR

STARTCHAR char217
ENCODING 217
SWIDTH 64 0
DWIDTH 6 0
BBX 6 7 1 0
BITMAP
10
EC
88
88
90
90
E0
ENDCHAR

STARTCHAR char218
ENCODING 218
SWIDTH 64 0
DWIDTH 6 0
BBX 6 7 1 0
BITMAP
20
EC
88
88
90
90
E0
ENDCHAR

STARTCHAR char219
ENCODING 219
SWIDTH 64 0
DWIDTH 6 0
BBX 6 7 1 0
BITMAP
70
EC
88
88
90
90
E0
ENDCHAR

STARTCHAR char220
ENCODING 220
SWIDTH 64 0
DWIDTH 6 0
BBX 6 7 1 0
BITMAP
28
EC
88
88
90
90
E0
ENDCHAR

STARTCHAR char221
ENCODING 221
SWIDTH 86 0
DWIDTH 8 0
BBX 0 0 0 0
BITMAP
ENDCHAR

STARTCHAR char222
ENCODING 222
SWIDTH 86 0
DWIDTH 8 0
BBX 0 0 0 0
BITMAP
ENDCHAR

STARTCHAR char223
ENCODING 223
SWIDTH 43 0
DWIDTH 4 0
BBX 6 7 -2 -1
BITMAP
0C
14
18
18
28
38
40
ENDCHAR

STARTCHAR char224
ENCODING 224
SWIDTH 43 0
DWIDTH 4 0
BBX 4 6 0 0
BITMAP
20
00
70
90
90
F0
ENDCHAR

STARTCHAR char225
ENCODING 225
SWIDTH 43 0
DWIDTH 4 0
BBX 4 6 0 0
BITMAP
10
00
70
90
90
F0
ENDCHAR

STARTCHAR char226
ENCODING 226
SWIDTH 43 0
DWIDTH 4 0
BBX 4 6 0 0
BITMAP
30
00
70
90
90
F0
ENDCHAR

STARTCHAR char227
ENCODING 227
SWIDTH 43 0
DWIDTH 4 0
BBX 5 6 0 0
BITMAP
38
00
70
90
A0
F0
ENDCHAR

STARTCHAR char228
ENCODING 228
SWIDTH 43 0
DWIDTH 4 0
BBX 4 6 0 0
BITMAP
30
00
70
A0
A0
F0
ENDCHAR

STARTCHAR char229
ENCODING 229
SWIDTH 43 0
DWIDTH 4 0
BBX 4 6 0 0
BITMAP
30
30
70
90
A0
F0
ENDCHAR

STARTCHAR char230
ENCODING 230
SWIDTH 64 0
DWIDTH 6 0
BBX 6 4 0 0
BITMAP
7C
9C
B0
D8
ENDCHAR

STARTCHAR char231
ENCODING 231
SWIDTH 32 0
DWIDTH 3 0
BBX 4 6 0 -2
BITMAP
70
80
80
E0
C0
80
ENDCHAR

STARTCHAR char232
ENCODING 232
SWIDTH 32 0
DWIDTH 3 0
BBX 4 6 0 0
BITMAP
20
00
70
E0
80
E0
ENDCHAR

STARTCHAR char233
ENCODING 233
SWIDTH 32 0
DWIDTH 3 0
BBX 4 6 0 0
BITMAP
20
00
70
E0
80
E0
ENDCHAR

STARTCHAR char234
ENCODING 234
SWIDTH 32 0
DWIDTH 3 0
BBX 4 6 0 0
BITMAP
30
00
70
E0
80
E0
ENDCHAR

STARTCHAR char235
ENCODING 235
SWIDTH 32 0
DWIDTH 3 0
BBX 4 6 0 0
BITMAP
50
00
70
E0
80
E0
ENDCHAR

STARTCHAR char236
ENCODING 236
SWIDTH 21 0
DWIDTH 2 0
BBX 3 6 0 0
BITMAP
20
00
40
40
40
C0
ENDCHAR

STARTCHAR char237
ENCODING 237
SWIDTH 21 0
DWIDTH 2 0
BBX 3 6 0 0
BITMAP
20
00
40
40
40
C0
ENDCHAR

STARTCHAR char238
ENCODING 238
SWIDTH 21 0
DWIDTH 2 0
BBX 3 6 0 0
BITMAP
20
00
40
40
40
C0
ENDCHAR

STARTCHAR char239
ENCODING 239
SWIDTH 21 0
DWIDTH 2 0
BBX 3 6 0 0
BITMAP
60
00
40
40
40
E0
ENDCHAR

STARTCHAR char241
ENCODING 241
SWIDTH 43 0
DWIDTH 4 0
BBX 5 6 0 0
BITMAP
30
00
50
70
90
B0
ENDCHAR

STARTCHAR char242
ENCODING 242
SWIDTH 43 0
DWIDTH 4 0
BBX 4 6 0 0
BITMAP
20
00
70
90
90
E0
ENDCHAR

STARTCHAR char243
ENCODING 243
SWIDTH 43 0
DWIDTH 4 0
BBX 4 6 0 0
BITMAP
10
00
70
90
90
E0
ENDCHAR

STARTCHAR char244
ENCODING 244
SWIDTH 43 0
DWIDTH 4 0
BBX 4 6 0 0
BITMAP
30
00
70
90
90
E0
ENDCHAR

STARTCHAR char245
ENCODING 245
SWIDTH 43 0
DWIDTH 4 0
BBX 5 6 0 0
BITMAP
38
00
70
90
90
E0
ENDCHAR

STARTCHAR char246
ENCODING 246
SWIDTH 43 0
DWIDTH 4 0
BBX 4 6 0 0
BITMAP
30
00
70
90
90
E0
ENDCHAR

STARTCHAR char247
ENCODING 247
SWIDTH 43 0
DWIDTH 4 0
BBX 4 3 0 1
BITMAP
40
F0
40
ENDCHAR

STARTCHAR char248
ENCODING 248
SWIDTH 43 0
DWIDTH 4 0
BBX 4 4 0 0
BITMAP
70
D0
D0
E0
ENDCHAR

STARTCHAR char249
ENCODING 249
SWIDTH 43 0
DWIDTH 4 0
BBX 4 6 0 0
BITMAP
10
00
50
50
A0
F0
ENDCHAR

STARTCHAR char250
ENCODING 250
SWIDTH 43 0
DWIDTH 4 0
BBX 4 6 0 0
BITMAP
10
00
50
50
A0
F0
ENDCHAR

STARTCHAR char251
ENCODING 251
SWIDTH 43 0
DWIDTH 4 0
BBX 4 6 0 0
BITMAP
30
00
50
50
A0
F0
ENDCHAR

STARTCHAR char252
ENCODING 252
SWIDTH 43 0
DWIDTH 4 0
BBX 4 6 0 0
BITMAP
30
00
50
50
A0
F0
ENDCHAR

STARTCHAR char255
ENCODING 255
SWIDTH 32 0
DWIDTH 3 0
BBX 5 7 -1 -1
BITMAP
28
00
48
50
50
20
C0
ENDCHAR
ENDFONT
